#!OML:ASF E:/inclinewalkrobotboard/Project1/Captureday1/Session1/subject1.ASF
:FULLY-SPECIFIED
:DEGREES
351
root 0 0 0 -3.3662891800914885 -29.572006876695504 0.8717251302859044
lowerback 11.73028846658888 0.4564982059931241 1.8788182954484356
upperback 1.9207465981002805 0.7171429861569607 0.8651408165625605
thorax -4.424993869513788 0.3230548449153705 -0.28146522992298645
lowerneck -11.87071082731775 -1.0384769041660535 -3.52275280742608
upperneck 3.2908551543552207 -0.8101605244075505 2.185589386334221
head 2.995575789939272 -0.42245652052522775 1.1921502458115483
rclavicle -3.0751163916485608E-15 7.610510307361933E-17
rhumerus -7.625541883927404 -1.5814299171084265 -69.79844228952582
rradius 14.04357093002573
rwrist 39.99697251709573
rhand -7.5854559052580015 18.332641524022684
rfingers 7.125020000000033
rthumb 18.26717324433542 -11.337075858158737
lclavicle 4.586073621187446E-16 -1.397927403030453E-16
lhumerus 15.949033478232469 -34.31490361561768 71.62726767507905
lradius 124.86566781041891
lwrist 52.876702063654236
lhand -26.00735912469662 42.67175390568832
lfingers 7.139509394867748
lthumb 0.6753392725207856 53.005666430684414
rfemur -20.945153870230143 4.792556980646323 15.312153776201823
rtibia 49.46997204625658
rfoot -10.92997637904322 -12.778755931847993
rtoes -2.00184849503613
lfemur -24.351705293126123 1.1299461803289024 -11.282392509499998
ltibia 53.17871389357491
lfoot -8.963479785581177 0.7099261253203997
ltoes -9.780122419916134
352
root 0 0 0 -3.366104124916404 -29.571560862750005 0.8725167363742022
lowerback 11.730239764993497 0.4565460710656935 1.8788969166981848
upperback 1.920916790320048 0.717204907377873 0.8650826986639626
thorax -4.424782546618156 0.3230872455772331 -0.281581137061304
lowerneck -11.870269406437863 -1.0375305269990984 -3.522226124267547
upperneck 3.292135567512922 -0.8088523152945672 2.184392097347353
head 2.995804747518964 -0.4218522548462891 1.1917887596148073
rclavicle -3.0751050599514236E-15 7.609561497089063E-17
rhumerus -7.625021703073491 -1.5817057909111707 -69.79816663634041
rradius 14.043896504246938
rwrist 39.996791066019256
rhand -7.585680687145473 18.332496390805726
rfingers 7.125020000000033
rthumb 18.266958725012785 -11.337223641494667
lclavicle 4.586977725587939E-16 -1.3976915909258923E-16
lhumerus 15.950171171489949 -34.31500965146959 71.62670944807772
lradius 124.86705746521376
lwrist 52.87816042662455
lhand -26.007874710790528 42.67212184241584
lfingers 7.139510759586493
lthumb 0.6748468580959965 53.00543331237574
rfemur -20.94964828013212 4.791687729813292 15.30995964587895
rtibia 49.4737727862909
rfoot -10.927768706170713 -12.777905223625593
rtoes -2.0022655611648186
lfemur -24.352060635042527 1.1293972084270858 -11.282119224689158
ltibia 53.17842695690443
lfoot -8.962485255691249 0.7092519604205991
ltoes -9.780301651214618
353
root 0 0 0 -3.3659330902737072 -29.57122540267153 0.8732419817600752
lowerback 11.730212804079514 0.4565920740510402 1.8789696573315566
upperback 1.9210789320271842 0.7172636914035798 0.8650282776020626
thorax -4.424592141199188 0.32311781933823414 -0.28168934002924845
lowerneck -11.869857017081078 -1.0366746748922542 -3.521751083718925
upperneck 3.2932567162436897 -0.8076687339733097 2.1833172173904627
head 2.995998383210015 -0.421305706919439 1.191465122777835
rclavicle -3.0750956205082085E-15 7.608607252764596E-17
rhumerus -7.624580884761391 -1.5819388716957192 -69.79793149818377
rradius 14.04415671410947
rwrist 39.99664740951402
rhand -7.585864899493899 18.33237795519986
rfingers 7.125020000000033
rthumb 18.26678326107585 -11.337344592102642
lclavicle 4.587713651337233E-16 -1.3974528998973654E-16
lhumerus 15.951198597318673 -34.31510403456762 71.62620481967372
lradius 124.86830868921066
lwrist 52.87947330458941
lhand -26.008338261193074 42.67245361595833
lfingers 7.1395120178717315
lthumb 0.6744042376994894 53.005223805800945
rfemur -20.95360002812794 4.790938665951835 15.308023018221133
rtibia 49.47710159037347
rfoot -10.92582779944568 -12.777144032670718
rtoes -2.0026431621650382
lfemur -24.352512706396404 1.1289180648547288 -11.281836771822169
ltibia 53.178306226563265
lfoot -8.961505585527954 0.7085597842475062
ltoes -9.780505318758308
354
root 0 0 0 -3.3657772738169163 -29.570987420860654 0.8739102562886216
lowerback 11.730202820148524 0.45663535771338276 1.8790358215669356
upperback 1.9212334818412673 0.7173182559871804 0.864977359788885
thorax -4.424419470609919 0.32314607900428044 -0.2817895334370987
lowerneck -11.869469573303768 -1.0358979466743556 -3.5213219800689446
upperneck 3.294241628399673 -0.8065942889939564 2.182349959250458
head 2.9961619266880133 -0.4208097406489961 1.1911748546676875
rclavicle -3.0750883033044854E-15 7.607689883043981E-17
rhumerus -7.624206445150225 -1.582137761325539 -69.79772992013915
rradius 14.044362492935662
rwrist 39.99653541889238
rhand -7.586015501967545 18.332282298670187
rfingers 7.125020000000033
rthumb 18.266640113939786 -11.337442609364732
lclavicle 4.588327093962511E-16 -1.397217688031005E-16
lhumerus 15.952140748359856 -34.31518369007633 71.62573938850288
lradius 124.86944529395801
lwrist 52.88066880502608
lhand -26.008762119363737 42.67275556957084
lfingers 7.139513181339486
lthumb 0.6739995227227151 53.00503343490737
rfemur -20.957132475784654 4.790269906567567 15.30629164443908
rtibia 49.48007923340253
rfoot -10.924085978357484 -12.776457771875053
rtoes -2.002978494210438
lfemur -24.353013170911016 1.128500295592802 -11.28155766371718
ltibia 53.1782991090155
lfoot -8.960568194261855 0.7078774322538051
ltoes -9.78071999962399
